<svg xmlns="http://www.w3.org/2000/svg" xmlns:xlink="http://www.w3.org/1999/xlink" viewBox="0 0 565.16 384.14"><defs><style>.cls-1{fill:url(#linear-gradient);}.cls-2{fill:#eee;}.cls-3{fill:#bdbdbd;}.cls-4{fill:url(#linear-gradient-2);}.cls-5{fill:#fff;}.cls-6{fill:url(#linear-gradient-3);}.cls-7{fill:url(#linear-gradient-4);}.cls-8{fill:#d3d8f5;}.cls-9{fill:url(#linear-gradient-5);}.cls-10{fill:#f4f4f4;}.cls-11{fill:url(#linear-gradient-6);}.cls-12{fill:url(#linear-gradient-7);}</style><linearGradient id="linear-gradient" x1="290.8" y1="174.51" x2="290.8" y2="308.69" gradientTransform="matrix(-1, 0, 0, 1, 573.38, 0)" gradientUnits="userSpaceOnUse"><stop offset="0" stop-color="#e5e5e5"/><stop offset="0.48" stop-color="#f4f4f4"/><stop offset="1" stop-color="#fff"/></linearGradient><linearGradient id="linear-gradient-2" x1="139.73" y1="66.16" x2="425.44" y2="66.16" gradientUnits="userSpaceOnUse"><stop offset="0" stop-color="#4e9cff"/><stop offset="0.19" stop-color="#4190f5"/><stop offset="0.71" stop-color="#2274dd"/><stop offset="1" stop-color="#176ad4"/></linearGradient><linearGradient id="linear-gradient-3" x1="139.73" y1="135.4" x2="425.44" y2="135.4" xlink:href="#linear-gradient-2"/><linearGradient id="linear-gradient-4" x1="166.08" y1="14.98" x2="196.65" y2="14.98" xlink:href="#linear-gradient-2"/><linearGradient id="linear-gradient-5" x1="363.67" y1="14.98" x2="394.23" y2="14.98" xlink:href="#linear-gradient-2"/><linearGradient id="linear-gradient-6" x1="263.56" y1="104.66" x2="297.64" y2="104.66" xlink:href="#linear-gradient-2"/><linearGradient id="linear-gradient-7" x1="271.96" y1="105.08" x2="289.24" y2="105.08" xlink:href="#linear-gradient-2"/></defs><g id="Layer_2" data-name="Layer 2"><g id="Layer_2-2" data-name="Layer 2"><ellipse class="cls-1" cx="282.58" cy="298.69" rx="282.58" ry="85.45"/><path class="cls-2" d="M154.24,94.54c5.77,7,1,16-4.74,21.15C142.44,122,135.26,121,132,126.55c-4,6.71,4.46,11.64.08,18.65-2.7,4.31-6.4,3.28-11.75,8.75-6.53,6.67-.13,8.56-4.76,13.43-14.88,15.67-20.84,4.8-29.89,8.92-11.74,5.34-19.59,9.9-25.34,8.83-22.59-4.2-15.63-16.88-26.59-21.77-14.82-6.61-22.06-33.64-11.89-43.17,5.33-5,10.59-5.59,11.09-9.75.71-6-9.89-7.74-11-15-1.22-8.18,11.49-12.14,9.6-19-1.85-6.74-14.89-6.5-15.73-11.31-1.26-7.3,26.57-20.37,55.4-19.55,13.78.38,36.24,4.18,40,14,2.16,5.67-3.45,9.33-.29,16.64,2.3,5.33,7.39,8.3,14.13,12.14C131.45,92,144,82.21,154.24,94.54Z"/><path class="cls-3" d="M85.35,90.15c4.53-.19,6.85,25.64,4.22,29s-7.58,5.88-7.91,9.58S83.27,198,84.87,197s14.88-18.12,12.23-22.12-5.66-10.18-5-15.4.63-12.67,2.35-12.49.27,13,1.46,15.49,1.4,4.43,3.11,4.47,1.75-13.52,4.36-13.28.84,20.23-.06,23.93-4,16.48-6.8,21.18S85,208.45,84.83,210.05,86,249.81,86,249.81l-22.55.35s8.33-75.23,6.47-77.74-13.63-22.83-16.15-24.9-4-14.74-2.7-14.93,2.07,12.17,4.84,12.37,4.25-23.9,6.26-23.68-2,25-.87,26.53,7.37,10.7,9.46,10.51-1.15-67.66.65-68.42,3.14-.13,4.24,6.93,3.24,22.48,4.47,22.46,4.34-2.35,4.4-3.89S83.33,90.24,85.35,90.15Z"/><path class="cls-2" d="M452,183.06c-3.27,3.95-.58,9.08,2.68,12,4,3.56,8.06,3,9.91,6.15,2.24,3.8-2.52,6.59,0,10.56,1.53,2.44,3.62,1.86,6.65,5,3.7,3.77.08,4.84,2.7,7.6,8.42,8.87,11.79,2.72,16.92,5,6.65,3,11.09,5.6,14.35,5C518,232,514.05,224.79,520.25,222c8.39-3.74,12.49-19.05,6.73-24.44-3-2.82-6-3.17-6.27-5.52-.41-3.39,5.59-4.38,6.2-8.47.69-4.63-6.5-6.87-5.43-10.78s8.43-3.68,8.9-6.4c.72-4.14-15-11.53-31.36-11.08-7.81.22-20.52,2.38-22.63,7.93-1.23,3.21,1.95,5.28.16,9.42-1.3,3-4.18,4.7-8,6.87C464.93,181.61,457.81,176.07,452,183.06Z"/><path class="cls-3" d="M491,180.57c-2.57-.11-3.88,14.52-2.39,16.44s4.29,3.33,4.48,5.42-.91,39.19-1.82,38.65-8.42-10.26-6.92-12.52,3.2-5.76,2.85-8.72-.36-7.17-1.33-7.07-.15,7.36-.83,8.77-.79,2.51-1.76,2.53-1-7.65-2.47-7.52-.47,11.45,0,13.55,2.24,9.33,3.85,12,6.48,5.46,6.59,6.37-.66,22.51-.66,22.51l12.77.19s-4.71-42.59-3.66-44,7.71-12.92,9.14-14.1,2.28-8.34,1.53-8.45-1.17,6.89-2.74,7-2.41-13.54-3.54-13.42,1.1,14.16.49,15-4.18,6.06-5.36,5.95.65-38.31-.37-38.74-1.77-.08-2.4,3.92-1.83,12.73-2.53,12.72-2.45-1.33-2.49-2.2S492.17,180.62,491,180.57Z"/><path class="cls-2" d="M383.27,233.48h1.49V19.86H373.13V170.68h-185V19.86H176.52V233.48h1.41a7,7,0,0,0-7.06,6.92v6.11h22.76V240.4a7,7,0,0,0-7.06-6.92h1.58V184.15h185v49.33h1.5a7,7,0,0,0-7.06,6.92v6.11h22.76V240.4A7,7,0,0,0,383.27,233.48Z"/><path class="cls-4" d="M425.44,47.86v36.6c0,1.76-1.84,3.19-4.1,3.19H143.82c-2.26,0-4.09-1.43-4.09-3.19V47.86c0-1.77,1.83-3.2,4.09-3.2H421.34C423.6,44.66,425.44,46.09,425.44,47.86Z"/><polygon class="cls-5" points="168 47.69 142.91 75.29 142.91 60.2 154.32 47.69 168 47.69"/><polygon class="cls-5" points="202.54 47.69 169.18 84.63 155.22 84.63 188.67 47.69 202.54 47.69"/><polygon class="cls-5" points="237.53 47.69 204.39 84.63 190.25 84.63 223.48 47.69 237.53 47.69"/><polygon class="cls-5" points="272.99 47.69 240.07 84.63 225.75 84.63 258.75 47.69 272.99 47.69"/><polygon class="cls-5" points="308.93 47.69 276.24 84.63 261.71 84.63 294.5 47.69 308.93 47.69"/><polygon class="cls-5" points="345.36 47.69 312.88 84.63 298.16 84.63 330.73 47.69 345.36 47.69"/><polygon class="cls-5" points="382.28 47.69 350.03 84.63 335.11 84.63 367.45 47.69 382.28 47.69"/><polygon class="cls-5" points="416 47.69 382.43 84.63 368.65 84.63 402.32 47.69 416 47.69"/><polygon class="cls-5" points="422.25 63.61 422.25 79.01 417.18 84.63 403.22 84.63 422.25 63.61"/><path class="cls-6" d="M425.44,117.1v36.6c0,1.77-1.84,3.19-4.1,3.19H143.82c-2.26,0-4.09-1.42-4.09-3.19V117.1c0-1.76,1.83-3.19,4.09-3.19H421.34C423.6,113.91,425.44,115.34,425.44,117.1Z"/><polygon class="cls-5" points="168 116.93 142.91 144.54 142.91 129.45 154.32 116.93 168 116.93"/><polygon class="cls-5" points="202.54 116.93 169.18 153.87 155.22 153.87 188.67 116.93 202.54 116.93"/><polygon class="cls-5" points="237.53 116.93 204.39 153.87 190.25 153.87 223.48 116.93 237.53 116.93"/><polygon class="cls-5" points="272.99 116.93 240.07 153.87 225.75 153.87 258.75 116.93 272.99 116.93"/><polygon class="cls-5" points="308.93 116.93 276.24 153.87 261.71 153.87 294.5 116.93 308.93 116.93"/><polygon class="cls-5" points="345.36 116.93 312.88 153.87 298.16 153.87 330.73 116.93 345.36 116.93"/><polygon class="cls-5" points="382.28 116.93 350.03 153.87 335.11 153.87 367.45 116.93 382.28 116.93"/><polygon class="cls-5" points="416 116.93 382.43 153.87 368.65 153.87 402.32 116.93 416 116.93"/><polygon class="cls-5" points="422.25 132.85 422.25 148.25 417.18 153.87 403.22 153.87 422.25 132.85"/><path class="cls-7" d="M166.08,15a15.29,15.29,0,0,1,30.57,0,15.29,15.29,0,0,1-30.57,0Z"/><path class="cls-8" d="M171.06,15a10.31,10.31,0,0,1,20.61,0,10.31,10.31,0,0,1-20.61,0Z"/><path class="cls-9" d="M363.67,15a15.28,15.28,0,0,1,30.56,0,15.28,15.28,0,0,1-30.56,0Z"/><path class="cls-8" d="M368.64,15a10.31,10.31,0,0,1,20.61,0,10.31,10.31,0,0,1-20.61,0Z"/><circle class="cls-10" cx="280.6" cy="100.66" r="34.5"/><path class="cls-8" d="M284.9,78.32h-8.6a5.85,5.85,0,0,0-5.85,5.84V96.44h2.8V84.51a3.4,3.4,0,0,1,3.39-3.4h7.91a3.4,3.4,0,0,1,3.4,3.4V96.44h2.79V84.16A5.84,5.84,0,0,0,284.9,78.32Z"/><rect class="cls-11" x="263.56" y="90.54" width="34.08" height="28.24" rx="3.98"/><circle class="cls-8" cx="280.6" cy="105.08" r="9.74" transform="translate(113.86 354.03) rotate(-76.72)"/><circle class="cls-12" cx="280.6" cy="105.08" r="8.64"/><path class="cls-8" d="M282,104.29a2.5,2.5,0,1,0-2.71,0l-.56,4.68a.58.58,0,0,0,.58.65h2.68a.58.58,0,0,0,.58-.65Z"/></g></g></svg>