<svg width="151" height="56" viewBox="0 0 151 56" fill="none" xmlns="http://www.w3.org/2000/svg">
<g clip-path="url(#clip0_571_8333)">
<path d="M147.093 52.5511H147.84V52.5866C147.84 52.6578 147.822 52.6933 147.822 52.7466C147.822 53.0489 147.911 53.2622 148.071 53.4222C148.249 53.5822 148.48 53.6533 148.8 53.6533C149.102 53.6533 149.316 53.5822 149.493 53.4222C149.653 53.2622 149.742 53.0489 149.742 52.7822C149.742 52.3555 149.422 52.0355 148.764 51.8044H148.747C148.089 51.5733 147.662 51.36 147.467 51.1289C147.271 50.9155 147.182 50.5778 147.182 50.1511C147.182 49.6889 147.324 49.3155 147.591 49.0489C147.876 48.7822 148.249 48.6578 148.747 48.6578C149.28 48.6578 149.671 48.7822 149.938 49.0311C150.204 49.2978 150.329 49.6711 150.329 50.1511V50.2222H149.618C149.6 49.9022 149.529 49.6711 149.387 49.5111C149.262 49.3689 149.049 49.2978 148.782 49.2978C148.498 49.2978 148.267 49.3689 148.124 49.5111C147.982 49.6533 147.911 49.8489 147.911 50.1333C147.911 50.2578 147.929 50.3644 147.964 50.4533C148 50.5422 148.071 50.6311 148.142 50.7022C148.284 50.8089 148.551 50.9333 148.96 51.0755C149.173 51.1466 149.351 51.2 149.476 51.2533C149.849 51.3955 150.116 51.5733 150.276 51.8044C150.436 52.0178 150.524 52.32 150.524 52.6755C150.524 53.2089 150.364 53.6355 150.062 53.92C149.76 54.2222 149.316 54.3644 148.729 54.3644C148.196 54.3644 147.804 54.2222 147.52 53.9378C147.253 53.6533 147.111 53.2444 147.111 52.7111V52.5511H147.093ZM145.493 52.3555H146.24C146.222 52.9955 146.08 53.4755 145.796 53.8133C145.511 54.1511 145.102 54.3289 144.569 54.3289C144 54.3289 143.556 54.0978 143.289 53.6533C143.004 53.2089 142.88 52.4978 142.88 51.5555C142.88 50.5422 143.022 49.8133 143.289 49.3511C143.573 48.8889 144 48.6578 144.587 48.6578C145.156 48.6578 145.564 48.8533 145.831 49.2622C146.116 49.6533 146.24 50.2578 146.24 51.0755V51.36C146.24 51.4311 146.222 51.4844 146.222 51.5378H143.644V51.7689C143.644 52.4444 143.716 52.9422 143.876 53.2444C144.036 53.5466 144.284 53.7066 144.622 53.7066C144.889 53.7066 145.102 53.6 145.262 53.3689C145.422 53.12 145.493 52.8178 145.493 52.4266V52.3555ZM143.644 50.8978H145.476V50.7555C145.476 50.2578 145.404 49.8844 145.262 49.6178C145.12 49.3689 144.907 49.2444 144.604 49.2444C144.284 49.2444 144.036 49.3866 143.876 49.6533C143.716 49.92 143.644 50.3466 143.644 50.8978ZM141.209 52.2666L141.956 52.2489C141.956 52.9066 141.796 53.4044 141.511 53.76C141.209 54.1155 140.8 54.2933 140.249 54.2933C139.644 54.2933 139.2 54.0444 138.916 53.5822C138.631 53.1022 138.489 52.3911 138.489 51.4133C138.489 50.4711 138.649 49.7778 138.933 49.2978C139.236 48.8355 139.698 48.6044 140.302 48.6044C140.818 48.6044 141.209 48.7644 141.493 49.0666C141.796 49.3689 141.938 49.7955 141.938 50.3289V50.4355H141.191C141.173 50.0622 141.102 49.76 140.942 49.5644C140.782 49.3689 140.587 49.2622 140.32 49.2622C139.947 49.2622 139.68 49.4222 139.538 49.7422C139.378 50.0622 139.289 50.6311 139.289 51.4133C139.289 52.1955 139.378 52.7644 139.538 53.1022C139.698 53.44 139.964 53.6 140.338 53.6C140.622 53.6 140.836 53.4755 140.996 53.2444C141.12 53.0666 141.209 52.7111 141.209 52.2666ZM136.676 48.7822H137.458V54.1866H136.676V48.7822ZM136.676 46.9511H137.458V47.9289H136.676V46.9511ZM133.636 54.1689L132.178 48.7644H133.013L134.062 52.9955L135.164 48.7644H135.947L134.453 54.1689H133.636ZM129.796 54.1689V48.7644H130.489V49.6533C130.596 49.3333 130.756 49.0844 130.987 48.9066C131.2 48.7289 131.467 48.64 131.751 48.64H131.947C131.982 48.64 132.036 48.64 132.071 48.6578V49.4578C132.036 49.4222 131.982 49.4222 131.929 49.4044C131.876 49.3866 131.822 49.3866 131.769 49.3866C131.378 49.3866 131.076 49.5111 130.862 49.7778C130.649 50.0444 130.542 50.4 130.542 50.8622V54.1689H129.796ZM128.036 52.3555H128.782C128.764 52.9955 128.622 53.4755 128.338 53.8133C128.053 54.1511 127.644 54.3289 127.111 54.3289C126.524 54.3289 126.098 54.0978 125.831 53.6533C125.547 53.2089 125.422 52.4978 125.422 51.5555C125.422 50.5422 125.564 49.8133 125.831 49.3511C126.116 48.8889 126.542 48.6578 127.129 48.6578C127.698 48.6578 128.107 48.8533 128.373 49.2622C128.658 49.6533 128.782 50.2578 128.782 51.0755V51.36C128.782 51.4311 128.782 51.4844 128.782 51.5378H126.187V51.7689C126.187 52.4444 126.258 52.9422 126.436 53.2444C126.596 53.5466 126.844 53.7066 127.182 53.7066C127.449 53.7066 127.662 53.6 127.822 53.3689C127.982 53.12 128.053 52.8178 128.053 52.4266V52.3555H128.036ZM126.187 50.8978H128.018V50.7555C128.018 50.2578 127.947 49.8844 127.804 49.6178C127.662 49.3689 127.449 49.2444 127.147 49.2444C126.827 49.2444 126.578 49.3866 126.418 49.6533C126.276 49.92 126.187 50.3466 126.187 50.8978ZM120.32 51.8755H121.084V52.1422C121.084 52.64 121.209 53.0133 121.422 53.2622C121.653 53.5111 121.991 53.6355 122.436 53.6355C122.844 53.6355 123.164 53.5111 123.378 53.28C123.609 53.0311 123.733 52.7111 123.733 52.2844C123.733 51.9466 123.662 51.68 123.52 51.5022C123.378 51.3244 123.076 51.1289 122.578 50.9511C122.453 50.8978 122.293 50.8444 122.098 50.7733C121.511 50.56 121.156 50.4 121.031 50.2933C120.836 50.1155 120.693 49.9022 120.587 49.6533C120.498 49.4044 120.444 49.12 120.444 48.8C120.444 48.16 120.622 47.68 120.96 47.3244C121.316 46.9689 121.796 46.7911 122.418 46.7911C123.004 46.7911 123.467 46.9511 123.804 47.2889C124.142 47.6089 124.302 48.0711 124.302 48.6578V48.7466C124.302 48.8 124.302 48.8178 124.302 48.8355H123.556V48.7644C123.556 48.3555 123.467 48.0355 123.253 47.8222C123.058 47.6089 122.773 47.5022 122.418 47.5022C122.044 47.5022 121.742 47.6089 121.529 47.8222C121.316 48.0355 121.209 48.32 121.209 48.6755C121.209 49.0133 121.28 49.28 121.422 49.4578C121.564 49.6533 121.884 49.8311 122.382 50.0089C122.453 50.0266 122.542 50.0622 122.649 50.1155C123.396 50.4 123.858 50.6133 124 50.7378C124.178 50.8978 124.32 51.1111 124.409 51.3422C124.498 51.5911 124.533 51.8578 124.533 52.1955C124.533 52.8711 124.338 53.4222 123.964 53.7955C123.591 54.1866 123.058 54.3644 122.382 54.3644C121.707 54.3644 121.209 54.1689 120.871 53.7955C120.533 53.4222 120.356 52.8711 120.356 52.1422C120.356 52.1066 120.356 52.0711 120.356 52.0178V51.8755H120.32ZM113.476 54.6666L114.222 54.6844C114.24 54.8978 114.311 55.0578 114.471 55.1822C114.613 55.2889 114.827 55.3422 115.111 55.3422C115.484 55.3422 115.751 55.2178 115.911 54.9866C116.089 54.7378 116.16 54.3466 116.16 53.8133V53.6889C116.142 53.6178 116.142 53.5644 116.142 53.5111C116.036 53.76 115.893 53.9378 115.68 54.0622C115.484 54.1866 115.236 54.24 114.951 54.24C114.4 54.24 114.009 53.9911 113.724 53.5111C113.458 53.0311 113.316 52.2844 113.316 51.2889C113.316 50.4 113.458 49.7422 113.742 49.2978C114.027 48.8533 114.453 48.64 115.004 48.64C115.289 48.64 115.538 48.7111 115.733 48.8355C115.929 48.96 116.071 49.1555 116.16 49.3866V48.7466H116.889V53.9022C116.889 54.56 116.729 55.0755 116.409 55.4311C116.089 55.7866 115.644 55.9644 115.058 55.9644C114.596 55.9644 114.222 55.84 113.92 55.5911C113.618 55.36 113.476 55.04 113.476 54.6666ZM114.116 51.4844C114.116 52.2489 114.187 52.7822 114.347 53.1022C114.507 53.4222 114.756 53.6 115.111 53.6C115.484 53.6 115.751 53.44 115.911 53.1022C116.071 52.7822 116.142 52.2133 116.142 51.4133C116.142 50.6666 116.053 50.1333 115.893 49.7955C115.733 49.4578 115.467 49.2978 115.093 49.2978C114.738 49.2978 114.489 49.4755 114.347 49.8133C114.187 50.1511 114.116 50.7022 114.116 51.4844ZM108.942 54.1689V48.7644H109.653V49.44C109.778 49.1733 109.956 48.9778 110.187 48.8355C110.418 48.7111 110.684 48.64 111.022 48.64C111.502 48.64 111.84 48.7644 112.036 48.9955C112.231 49.2266 112.338 49.6533 112.338 50.24V54.1511H111.573V50.1866C111.573 49.8844 111.52 49.6711 111.396 49.5289C111.271 49.3866 111.076 49.3155 110.827 49.3155C110.489 49.3155 110.222 49.4222 110.027 49.6355C109.831 49.8489 109.724 50.1333 109.724 50.5066V54.1689H108.942ZM107.022 48.7822H107.804V54.1866H107.022V48.7822ZM107.022 46.9511H107.804V47.9289H107.022V46.9511ZM102.507 54.1689V48.7644H103.218V49.44C103.342 49.1733 103.52 48.9778 103.751 48.8355C103.982 48.7111 104.249 48.64 104.587 48.64C105.049 48.64 105.404 48.7644 105.6 48.9955C105.796 49.2266 105.902 49.6533 105.902 50.24V54.1511H105.138V50.1866C105.138 49.8844 105.084 49.6711 104.96 49.5289C104.836 49.3866 104.64 49.3155 104.373 49.3155C104.036 49.3155 103.769 49.4222 103.573 49.6355C103.378 49.8489 103.271 50.1333 103.271 50.5066V54.1689H102.507ZM101.724 54.1866C101.636 54.2044 101.547 54.2222 101.476 54.2222C101.404 54.24 101.333 54.24 101.28 54.24C101.067 54.24 100.907 54.1689 100.782 54.0444C100.658 53.9022 100.587 53.7244 100.587 53.4755C100.462 53.76 100.302 53.9733 100.089 54.1155C99.8756 54.2578 99.6089 54.3466 99.3067 54.3466C98.9156 54.3466 98.6133 54.2044 98.4 53.9555C98.1867 53.6889 98.08 53.3155 98.08 52.8533C98.08 52.3733 98.1867 52.0178 98.3822 51.7866C98.5778 51.5555 99.0222 51.3066 99.68 51.0933L99.6978 51.0755C100.249 50.8978 100.516 50.6844 100.516 50.4355V49.9378C100.516 49.7244 100.462 49.5466 100.32 49.4578C100.196 49.3511 100 49.2978 99.7156 49.2978C99.4489 49.2978 99.2356 49.3689 99.1111 49.5111C98.9689 49.6533 98.9156 49.8666 98.9156 50.1511V50.24H98.2045C98.2222 49.6889 98.3467 49.28 98.5956 49.0311C98.8622 48.7822 99.2534 48.6578 99.8045 48.6578C100.32 48.6578 100.693 48.7822 100.924 48.9955C101.156 49.2266 101.28 49.6 101.28 50.0978V53.2622C101.28 53.4044 101.316 53.5111 101.351 53.5644C101.404 53.6355 101.476 53.6533 101.582 53.6533C101.6 53.6533 101.636 53.6533 101.689 53.6355H101.707V54.1866H101.724ZM100.533 51.2711C100.409 51.3955 100.142 51.5378 99.7511 51.68C99.7156 51.6978 99.6978 51.6978 99.68 51.7155C99.3245 51.84 99.1111 51.9822 99.0045 52.1244C98.8978 52.2844 98.8445 52.5155 98.8445 52.8C98.8445 53.0666 98.8978 53.28 99.0222 53.4222C99.1289 53.5644 99.3067 53.6355 99.52 53.6355C99.84 53.6355 100.089 53.5111 100.267 53.28C100.444 53.0489 100.551 52.7289 100.551 52.32V51.2711H100.533ZM96.4622 52.3555H97.2089C97.2089 52.9955 97.0489 53.4755 96.7645 53.8133C96.48 54.1511 96.0711 54.3289 95.5378 54.3289C94.9511 54.3289 94.5245 54.0978 94.2578 53.6533C93.9734 53.2089 93.8489 52.4978 93.8489 51.5555C93.8489 50.5422 93.9911 49.8133 94.2578 49.3511C94.5422 48.8889 94.9689 48.6578 95.5733 48.6578C96.1422 48.6578 96.5511 48.8533 96.8178 49.2622C97.1022 49.6533 97.2267 50.2578 97.2267 51.0755V51.36C97.2267 51.4311 97.2267 51.4844 97.2267 51.5378H94.6311V51.7689C94.6311 52.4444 94.7022 52.9422 94.88 53.2444C95.04 53.5466 95.2889 53.7066 95.6267 53.7066C95.8934 53.7066 96.1067 53.6 96.2667 53.3689C96.4267 53.12 96.4978 52.8178 96.4978 52.4266V52.3555H96.4622ZM94.6311 50.8978H96.4622V50.7555C96.4622 50.2578 96.3911 49.8844 96.2489 49.6178C96.1067 49.3689 95.8934 49.2444 95.5911 49.2444C95.2711 49.2444 95.0222 49.3866 94.88 49.6533C94.7022 49.92 94.6311 50.3466 94.6311 50.8978ZM92.1067 46.9511H92.8533V54.1866H92.1067V46.9511ZM90.1689 51.52H90.9689C90.9511 52.4266 90.7734 53.1378 90.4 53.6178C90.0267 54.0978 89.4933 54.3466 88.8 54.3466C88.0534 54.3466 87.5022 54.0444 87.1467 53.4222C86.7911 52.8 86.6133 51.8578 86.6133 50.5778C86.6133 49.2444 86.7911 48.2666 87.1467 47.6622C87.5022 47.0578 88.0711 46.7733 88.8711 46.7733C89.5289 46.7733 90.0445 46.9689 90.4 47.3422C90.7556 47.7155 90.9333 48.2666 90.9333 48.9778V49.0666H90.1511C90.1511 48.5689 90.0445 48.1778 89.8134 47.9111C89.5822 47.6266 89.2622 47.4844 88.8533 47.4844C88.3556 47.4844 88 47.7333 87.8045 48.1955C87.5911 48.6755 87.4845 49.4755 87.4845 50.5778C87.4845 51.6622 87.5911 52.4266 87.8222 52.8889C88.0356 53.3511 88.4089 53.5822 88.9245 53.5822C89.3334 53.5822 89.6534 53.4044 89.8845 53.0666C90.0978 52.7289 90.2045 52.2489 90.2045 51.6266V51.52H90.1689ZM79.7511 54.6666L80.4978 54.6844C80.5156 54.8978 80.5867 55.0578 80.7467 55.1822C80.8889 55.2889 81.1022 55.3422 81.3867 55.3422C81.76 55.3422 82.0267 55.2178 82.1867 54.9866C82.3645 54.7378 82.4356 54.3466 82.4356 53.8133V53.6889C82.4178 53.6178 82.4178 53.5644 82.4178 53.5111C82.3111 53.76 82.1511 53.9378 81.9378 54.0622C81.7422 54.1866 81.4933 54.24 81.2089 54.24C80.6578 54.24 80.2489 53.9911 79.9822 53.5111C79.7156 53.0311 79.5733 52.2844 79.5733 51.2889C79.5733 50.4 79.7156 49.7422 80 49.2978C80.2845 48.8533 80.7111 48.64 81.2622 48.64C81.5467 48.64 81.7956 48.7111 81.9911 48.8355C82.1867 48.96 82.3467 49.1555 82.4178 49.3866V48.7466H83.1467V53.9022C83.1467 54.56 82.9867 55.0755 82.6667 55.4311C82.3467 55.7866 81.9022 55.9644 81.3156 55.9644C80.8533 55.9644 80.48 55.84 80.1778 55.5911C79.8756 55.36 79.7333 55.04 79.7333 54.6666H79.7511ZM80.3911 51.4844C80.3911 52.2489 80.4622 52.7822 80.6222 53.1022C80.7822 53.4222 81.0311 53.6 81.3867 53.6C81.76 53.6 82.0267 53.44 82.1867 53.1022C82.3467 52.7822 82.4356 52.2133 82.4356 51.4133C82.4356 50.6666 82.3467 50.1333 82.1867 49.7955C82.0267 49.4578 81.76 49.2978 81.3867 49.2978C81.0489 49.2978 80.8 49.4755 80.64 49.8133C80.4622 50.1511 80.3911 50.7022 80.3911 51.4844ZM75.2178 54.1689V48.7644H75.9289V49.44C76.0534 49.1733 76.2311 48.9778 76.4622 48.8355C76.6934 48.7111 76.96 48.64 77.28 48.64C77.7422 48.64 78.0978 48.7644 78.2934 48.9955C78.4889 49.2266 78.5956 49.6533 78.5956 50.24V54.1511H77.8311V50.1866C77.8311 49.8844 77.7778 49.6711 77.6533 49.5289C77.5289 49.3866 77.3334 49.3155 77.0845 49.3155C76.7467 49.3155 76.48 49.4222 76.2845 49.6355C76.0889 49.8489 75.9822 50.1333 75.9822 50.5066V54.1689H75.2178ZM73.2978 48.7822H74.08V54.1866H73.2978V48.7822ZM73.2978 46.9511H74.08V47.9289H73.2978V46.9511ZM72.16 54.1689H71.4489V53.4933C71.3778 53.7244 71.2533 53.92 71.0222 54.0622C70.8089 54.2044 70.56 54.2755 70.2756 54.2755C69.7245 54.2755 69.2978 54.0089 69.0134 53.5111C68.7111 52.9955 68.5689 52.2666 68.5689 51.2889C68.5689 50.4533 68.7111 49.7955 69.0134 49.3333C69.3156 48.8711 69.7067 48.64 70.24 48.64C70.5245 48.64 70.7733 48.7111 70.9867 48.8355C71.2 48.96 71.3422 49.12 71.3956 49.3333V46.9511H72.16V54.1689ZM71.4489 51.4311C71.4489 50.6489 71.3778 50.0978 71.2178 49.7778C71.0578 49.4755 70.8089 49.3155 70.4356 49.3155C70.08 49.3155 69.8133 49.4755 69.6533 49.8133C69.4933 50.1511 69.4045 50.6666 69.4045 51.3778C69.4045 52.16 69.4756 52.7289 69.6533 53.0844C69.8133 53.44 70.08 53.6178 70.4178 53.6178C70.7911 53.6178 71.0578 53.4578 71.2178 53.12C71.3778 52.7822 71.4489 52.2133 71.4489 51.4311ZM66.8267 46.9511H67.5733V54.1866H66.8267V46.9511ZM64.9245 48.7822H65.7067V54.1866H64.9245V48.7822ZM64.9245 46.9511H65.7067V47.9289H64.9245V46.9511ZM63.04 54.1689V53.4755C62.9333 53.7422 62.7556 53.9555 62.5245 54.0978C62.2933 54.24 62.0089 54.3111 61.6889 54.3111C61.2445 54.3111 60.9067 54.2044 60.6933 53.9733C60.4978 53.76 60.3911 53.4044 60.3911 52.9244V48.7644H61.1733V52.9422C61.1733 53.1733 61.2267 53.3333 61.3333 53.4578C61.4578 53.5822 61.6 53.6355 61.8133 53.6355C62.1867 53.6355 62.4533 53.5111 62.6667 53.2978C62.88 53.0666 62.9689 52.7466 62.9689 52.3378V48.7466H63.7333V54.1511H63.04V54.1689ZM55.2889 54.1689V46.9333H57.1733C57.8489 46.9333 58.3467 47.0755 58.6489 47.36C58.9511 47.6444 59.1111 48.1066 59.1111 48.7289C59.1111 49.1555 59.04 49.5111 58.8622 49.76C58.7022 50.0266 58.4533 50.2044 58.1156 50.2933C58.5422 50.3822 58.8445 50.56 59.04 50.8444C59.2356 51.1289 59.3422 51.5378 59.3422 52.0533C59.3422 52.7111 59.1645 53.2266 58.7911 53.5822C58.4356 53.9378 57.92 54.1155 57.2445 54.1155H55.2889V54.1689ZM56.0533 53.4578H57.0845C57.5822 53.4578 57.9378 53.3511 58.1333 53.1555C58.3467 52.9422 58.4533 52.6044 58.4533 52.1422C58.4533 51.6089 58.3467 51.2355 58.1156 51.0222C57.8845 50.8089 57.4933 50.7022 56.9245 50.7022H56.0356V53.4578H56.0533ZM56.0533 50.0266H56.9067C57.4222 50.0266 57.7778 49.9378 57.9733 49.7422C58.1689 49.5466 58.2756 49.2266 58.2756 48.7644C58.2756 48.3378 58.1689 48.0178 57.9733 47.8578C57.76 47.68 57.3867 47.5911 56.8533 47.5911H56.0533V50.0266ZM51.1822 54.1689L50.6845 53.4755C50.4711 53.7422 50.2045 53.9555 49.8845 54.08C49.5822 54.2222 49.2445 54.2933 48.8889 54.2933C48.3022 54.2933 47.8222 54.0978 47.4489 53.7066C47.0756 53.3155 46.8978 52.8 46.8978 52.1778C46.8978 51.7333 47.0045 51.3244 47.2356 50.9866C47.4667 50.6489 47.84 50.3289 48.3378 50.0266C48.1245 49.7422 47.9467 49.4578 47.8222 49.1555C47.6978 48.8711 47.6445 48.6222 47.6445 48.3911C47.6445 47.9644 47.7867 47.6089 48.0533 47.3244C48.32 47.0578 48.6578 46.9155 49.0845 46.9155C49.4933 46.9155 49.8311 47.0578 50.0978 47.3066C50.3645 47.5733 50.4889 47.8933 50.4889 48.3022C50.4889 48.6578 50.4 48.9778 50.1867 49.28C49.9911 49.5822 49.6889 49.8489 49.28 50.0978L50.6667 52.1244C50.72 51.9644 50.7556 51.7866 50.8089 51.5555C50.8622 51.3422 50.88 51.0755 50.8978 50.7911H51.6622C51.6267 51.2 51.5733 51.5733 51.4845 51.9111C51.3956 52.2311 51.2711 52.5333 51.1111 52.7466L52.0889 54.1511H51.1822V54.1689ZM50.2933 52.8711L48.7111 50.56C48.3733 50.7733 48.1422 51.0222 47.9645 51.2711C47.8045 51.5378 47.7156 51.8222 47.7156 52.1422C47.7156 52.5511 47.84 52.8889 48.0889 53.1555C48.3556 53.44 48.6578 53.5644 49.0311 53.5644C49.28 53.5644 49.4933 53.5111 49.7067 53.3866C49.9378 53.28 50.1156 53.1022 50.2933 52.8711ZM48.96 49.6178C49.2089 49.4578 49.4045 49.2622 49.5467 49.0489C49.6889 48.8355 49.7422 48.6044 49.7422 48.3733C49.7422 48.1422 49.6889 47.9466 49.5645 47.8222C49.44 47.68 49.28 47.6266 49.0667 47.6266C48.8711 47.6266 48.6933 47.6978 48.5689 47.8222C48.4622 47.9644 48.3911 48.1422 48.3911 48.3911C48.3911 48.5511 48.4445 48.7289 48.5333 48.9422C48.6578 49.1378 48.7822 49.3689 48.96 49.6178ZM42.6489 46.9511H43.3956V54.1866H42.6489V46.9511ZM38.6845 51.4666C38.6845 52.2666 38.7733 52.8355 38.9333 53.1733C39.0933 53.5111 39.3778 53.6711 39.7689 53.6711C40.16 53.6711 40.4445 53.4933 40.6045 53.1555C40.7645 52.8178 40.8533 52.2666 40.8533 51.4666C40.8533 50.6666 40.7645 50.0978 40.6045 49.76C40.4445 49.44 40.16 49.2622 39.7689 49.2622C39.3778 49.2622 39.1111 49.4222 38.9333 49.76C38.7733 50.0978 38.6845 50.6666 38.6845 51.4666ZM37.8667 51.4666C37.8667 50.4889 38.0267 49.7778 38.3289 49.3155C38.6311 48.8533 39.1111 48.6222 39.7511 48.6222C40.4089 48.6222 40.8889 48.8533 41.1911 49.3155C41.4933 49.7778 41.6533 50.4889 41.6533 51.4844C41.6533 52.4622 41.4933 53.1911 41.1911 53.6355C40.8889 54.0978 40.4089 54.3289 39.7511 54.3289C39.0933 54.3289 38.6133 54.0978 38.3111 53.6533C38.0267 53.1911 37.8667 52.4622 37.8667 51.4666ZM35.2356 54.1689V48.7644H35.9289V49.6533C36.0356 49.3333 36.1956 49.0844 36.4267 48.9066C36.64 48.7289 36.9067 48.64 37.1911 48.64H37.3867C37.4222 48.64 37.4756 48.64 37.5111 48.6578V49.4578C37.4756 49.4222 37.4222 49.4222 37.3689 49.4044C37.3156 49.3866 37.2622 49.3866 37.2089 49.3866C36.8178 49.3866 36.5156 49.5111 36.3022 49.7778C36.0889 50.0444 35.9822 50.4 35.9822 50.8622V54.1689H35.2356ZM33.7244 53.0666C33.7244 53.28 33.76 53.44 33.8489 53.5111C33.92 53.5822 34.1333 53.6178 34.4356 53.6178H34.5422C34.5778 53.6 34.5956 53.6 34.6133 53.6V54.2578C34.56 54.2578 34.5067 54.2578 34.4178 54.2755C34.2222 54.2755 34.0978 54.2755 34.0445 54.2755C33.6889 54.2755 33.4222 54.2044 33.2444 54.0622C33.0667 53.92 32.9778 53.7066 32.9778 53.4222V49.4044H32.2311V48.7822H32.9778V47.3422H33.7244V48.7822H34.6133V49.4044H33.7244V53.0666ZM28.3378 54.1689V48.7644H29.0489V49.44C29.1733 49.1733 29.3511 48.9778 29.5822 48.8355C29.8133 48.7111 30.08 48.64 30.4 48.64C30.8622 48.64 31.2178 48.7644 31.4133 48.9955C31.6089 49.2266 31.7156 49.6533 31.7156 50.24V54.1511H30.9511V50.1866C30.9511 49.8844 30.8978 49.6711 30.7733 49.5289C30.6489 49.3866 30.4533 49.3155 30.2044 49.3155C29.8667 49.3155 29.6 49.4222 29.4044 49.6355C29.2089 49.8489 29.1022 50.1333 29.1022 50.5066V54.1689H28.3378ZM24.3556 51.4666C24.3556 52.2666 24.4444 52.8355 24.6044 53.1733C24.7644 53.5111 25.0489 53.6711 25.44 53.6711C25.8311 53.6711 26.1156 53.4933 26.2756 53.1555C26.4356 52.8178 26.5244 52.2666 26.5244 51.4666C26.5244 50.6666 26.4356 50.0978 26.2756 49.76C26.1156 49.44 25.8311 49.2622 25.44 49.2622C25.0489 49.2622 24.7822 49.4222 24.6044 49.76C24.4444 50.0978 24.3556 50.6666 24.3556 51.4666ZM23.5556 51.4666C23.5556 50.4889 23.7156 49.7778 24.0356 49.3155C24.3378 48.8533 24.8178 48.6222 25.4578 48.6222C26.1156 48.6222 26.5956 48.8533 26.8978 49.3155C27.2 49.7778 27.36 50.4889 27.36 51.4844C27.36 52.4622 27.2 53.1911 26.8978 53.6355C26.5956 54.0978 26.1156 54.3289 25.4578 54.3289C24.8 54.3289 24.32 54.0978 24.0178 53.6533C23.6978 53.1911 23.5556 52.4622 23.5556 51.4666ZM21.76 51.52H22.56C22.5422 52.4266 22.3644 53.1378 21.9911 53.6178C21.6178 54.0978 21.0844 54.3466 20.3911 54.3466C19.6444 54.3466 19.0933 54.0444 18.7378 53.4222C18.3822 52.8 18.2044 51.8578 18.2044 50.5778C18.2044 49.2444 18.3822 48.2666 18.7378 47.6622C19.0933 47.0578 19.6622 46.7733 20.4622 46.7733C21.12 46.7733 21.6356 46.9689 21.9911 47.3422C22.3467 47.7155 22.5244 48.2666 22.5244 48.9778V49.0666H21.7422C21.7422 48.5689 21.6178 48.1778 21.4044 47.9111C21.1733 47.6266 20.8533 47.4844 20.4444 47.4844C19.9644 47.4844 19.6089 47.7333 19.3956 48.1955C19.1822 48.6755 19.0756 49.4755 19.0756 50.5778C19.0756 51.6622 19.2 52.4266 19.4133 52.8889C19.6267 53.3511 20 53.5822 20.5156 53.5822C20.9244 53.5822 21.2444 53.4044 21.4578 53.0666C21.6711 52.7289 21.7778 52.2489 21.7778 51.6266V51.52H21.76ZM14.3822 53.0666C14.3822 53.28 14.4178 53.44 14.5067 53.5111C14.5778 53.5822 14.7911 53.6178 15.0756 53.6178H15.1822C15.2178 53.6 15.2356 53.6 15.2533 53.6L15.2711 54.2578C15.2178 54.2578 15.1644 54.2578 15.0756 54.2755C14.88 54.2755 14.7556 54.2755 14.7022 54.2755C14.3467 54.2755 14.08 54.2044 13.9022 54.0622C13.7244 53.92 13.6356 53.7066 13.6356 53.4222V49.4044H12.8889V48.7822H13.6356V47.3422H14.3644V48.7822H15.2533V49.4044H14.3644V53.0666H14.3822ZM9.10222 52.5511H9.84889V52.5866C9.84889 52.6578 9.83111 52.6933 9.83111 52.7466C9.83111 53.0489 9.92 53.2622 10.08 53.4222C10.2578 53.5822 10.4889 53.6533 10.8089 53.6533C11.1111 53.6533 11.3244 53.5822 11.5022 53.4222C11.6622 53.2622 11.7511 53.0489 11.7511 52.7822C11.7511 52.3555 11.4311 52.0355 10.7733 51.8044H10.7556C10.0978 51.5733 9.67111 51.36 9.47556 51.1289C9.28 50.9155 9.19111 50.5778 9.19111 50.1511C9.19111 49.6889 9.33333 49.3155 9.6 49.0489C9.88445 48.7822 10.2578 48.6578 10.7556 48.6578C11.2889 48.6578 11.68 48.7822 11.9467 49.0311C12.2133 49.2978 12.3378 49.6711 12.3378 50.1511V50.2222H11.6089C11.5911 49.9022 11.52 49.6711 11.3778 49.5111C11.2533 49.3689 11.04 49.2978 10.7556 49.2978C10.4711 49.2978 10.24 49.3689 10.0978 49.5111C9.95556 49.6533 9.88445 49.8489 9.88445 50.1333C9.88445 50.2578 9.90222 50.3644 9.93778 50.4533C9.97334 50.5422 10.0267 50.6311 10.1156 50.7022C10.2578 50.8089 10.5244 50.9333 10.9333 51.0755C11.1467 51.1466 11.3244 51.2 11.4489 51.2533C11.8222 51.3955 12.0889 51.5733 12.2489 51.8044C12.4089 52.0178 12.4978 52.32 12.4978 52.6755C12.4978 53.2089 12.3378 53.6355 12.0356 53.92C11.7333 54.2222 11.2889 54.3644 10.7022 54.3644C10.1689 54.3644 9.77778 54.2222 9.49334 53.9378C9.22667 53.6533 9.08445 53.2444 9.08445 52.7111V52.5511H9.10222ZM7.50222 52.3555H8.24889C8.23111 52.9955 8.08889 53.4755 7.80445 53.8133C7.52 54.1511 7.11111 54.3289 6.57778 54.3289C6.00889 54.3289 5.56445 54.0978 5.29778 53.6533C5.01333 53.2089 4.88889 52.4978 4.88889 51.5555C4.88889 50.5422 5.03111 49.8133 5.29778 49.3511C5.58222 48.8889 6.00889 48.6578 6.61333 48.6578C7.18222 48.6578 7.59111 48.8533 7.85778 49.2622C8.14222 49.6533 8.26667 50.2578 8.26667 51.0755V51.36C8.26667 51.4311 8.24889 51.4844 8.24889 51.5378H5.65333V51.7689C5.65333 52.4444 5.72445 52.9422 5.88445 53.2444C6.04445 53.5466 6.29333 53.7066 6.63111 53.7066C6.89778 53.7066 7.11111 53.6 7.27111 53.3689C7.43111 53.12 7.50222 52.8178 7.50222 52.4266V52.3555ZM5.65333 50.8978H7.48445V50.7555C7.48445 50.2578 7.41333 49.8844 7.27111 49.6178C7.12889 49.3689 6.91556 49.2444 6.61333 49.2444C6.29333 49.2444 6.04445 49.3866 5.88445 49.6533C5.72445 49.92 5.65333 50.3466 5.65333 50.8978ZM0 54.1689V46.9333H1.84889C2.63111 46.9333 3.21778 47.0933 3.57333 47.4133C3.94667 47.7333 4.12445 48.2489 4.12445 48.9422C4.12445 49.6533 3.92889 50.2044 3.55556 50.56C3.18222 50.9333 2.61333 51.1111 1.88444 51.1111H0.8V54.1511H0V54.1689ZM0.8 50.4178H1.84889C2.34667 50.4178 2.70222 50.3111 2.93333 50.0622C3.16445 49.8133 3.27111 49.4578 3.27111 48.96C3.27111 48.4978 3.14667 48.1778 2.93333 47.9644C2.70222 47.7689 2.32889 47.6622 1.81333 47.6622H0.8V50.4178Z" fill="#231F20"/>
<path d="M150.347 42.1689H0V42.8978H150.347V42.1689Z" fill="#ED1D24"/>
<path fill-rule="evenodd" clip-rule="evenodd" d="M7.09334 38.3644V28.2844H13.28C23.3956 28.2844 26.88 22.7378 26.88 17.3333C26.88 12.0711 24.1778 6.29333 13.28 6.29333H0V38.3467H7.09334V38.3644Z" fill="#790111"/>
<path fill-rule="evenodd" clip-rule="evenodd" d="M123.129 6.4L114.489 6.32889L125.369 21.3867H134.649L150.347 0H141.725L130.062 16.3022L123.129 6.4Z" fill="#ED1D24"/>
<path fill-rule="evenodd" clip-rule="evenodd" d="M137.405 38.3467L146.027 38.4355L134.72 22.9689H125.298L113.689 38.3111H122.311L129.956 27.9822L137.405 38.3467Z" fill="#790111"/>
<path fill-rule="evenodd" clip-rule="evenodd" d="M29.2089 38.3645H54.1155V31.7156H36.3022V12.9423H54.08V6.31116H29.2089V38.3645Z" fill="#790111"/>
<path fill-rule="evenodd" clip-rule="evenodd" d="M75.5912 29.1911C75.5912 30.72 74.1689 32.0533 70.5956 32.0533C70.4 32.0533 57.76 32.0533 57.5645 32.0355V38.4C57.8133 38.4 70.5245 38.4 70.7734 38.4178C81.4934 38.7022 82.8978 34.24 82.8978 28.6755C82.8978 17.5644 65.0489 20.2489 65.0489 15.5555C65.0489 13.7955 66.56 12.6577 69.8489 12.6577C70.7378 12.6577 81.3512 12.7644 82.1156 12.96V6.39996C81.4045 6.31107 70.88 6.27551 70.1156 6.27551C58.4356 6.32885 57.7067 11.3066 57.7067 15.6266C57.7245 26.7911 75.5912 23.84 75.5912 29.1911Z" fill="#790111"/>
<path fill-rule="evenodd" clip-rule="evenodd" d="M84.2844 12.9423H94.5422V38.3645H101.636V12.9423H116.551L111.947 6.31116H84.2844V12.9423Z" fill="#790111"/>
<path d="M53.2444 18.8978H37.8844V25.3156H53.2444V18.8978Z" fill="#ED1D24"/>
<path d="M8.87111 18.1511C8.88889 18.0089 8.92444 17.8845 8.97777 17.7423L9.01333 17.6356L9.08444 17.5289C9.10222 17.5111 9.12 17.4934 9.13778 17.4578L7.46666 17.6356L6.50666 17.7245L6.45333 16.7645L6.43555 16.4089C6.36444 15.0934 6.29333 13.9556 6.57777 12.9245C7.18222 10.72 8.48 9.31559 10.0089 8.60447C10.9867 8.16003 12.0711 8.00003 13.1378 8.08892C14.1867 8.19559 15.2178 8.55114 16.1067 9.15558C17.5644 10.1156 18.6667 11.68 18.9511 13.7067L19.9467 14.9689L20.9778 16.2845L19.3067 16.4445L18.1333 16.5689V17.0845V19.2C18.2578 19.5556 18.3822 19.8934 18.5244 20.2311C18.6667 20.6222 18.8089 20.9956 18.9689 21.4578L19.3956 22.7022L18.08 22.6845C17.9022 22.6845 17.6889 22.6845 17.5111 22.6845C17.5111 22.7378 17.4933 22.7911 17.4933 22.8622H17.5289L17.4578 23.0934C17.44 23.2 17.4044 23.3067 17.3511 23.4134L17.2444 23.7689C16.9422 24.7467 16.4622 25.44 15.8578 25.8489C15.1467 26.3289 14.3289 26.4356 13.4933 26.2045L13.4578 26.1867L13.4044 26.1689C12.2489 25.7422 11.2533 25.1911 10.4356 24.4267C9.79555 23.84 9.29778 23.1289 8.92444 22.2578C8.58666 22.2578 8.23111 22.1689 7.85777 21.92L7.68 21.8134L7.57333 21.6356C7.36 21.2978 7.21777 20.9778 7.11111 20.64C7.00444 20.3022 6.95111 19.9823 6.93333 19.6089C6.88 19.1645 6.95111 18.8089 7.11111 18.5423C7.30666 18.2045 7.59111 18.0089 7.96444 17.9556C8.23111 17.92 8.51555 17.9556 8.78222 18.08C8.8 18.1156 8.83555 18.1334 8.87111 18.1511Z" fill="white"/>
<path fill-rule="evenodd" clip-rule="evenodd" d="M15.3244 18.5067C15.6622 18.4 16.0177 18.5778 16.1422 18.8978C16.2489 19.2355 16.0711 19.5911 15.7511 19.7155C15.4133 19.8222 15.0577 19.6444 14.9333 19.3244C14.8089 18.9867 14.9866 18.6311 15.3244 18.5067ZM19.3244 15.6089C15.2711 16.0178 11.5555 16.3911 7.48441 16.7822C7.4133 15.3955 7.30663 14.2222 7.5733 13.2267C9.31552 6.80889 17.6 8.31999 18.1689 14.1333L19.3244 15.6089ZM9.95552 18.1511C9.8133 18.5244 9.91997 19.0044 10.2577 19.6089C9.9733 19.6978 9.68885 19.8044 9.38663 19.8933C8.6933 18.8089 7.82219 18.56 7.96441 19.6267C8.01774 20.2311 8.14219 20.7111 8.46219 21.2267C8.92441 21.5289 9.26219 21.44 9.59997 21.2089C10.24 23.4311 11.7155 24.6044 13.8133 25.3867C14.9333 25.6889 15.9466 25.1911 16.4444 23.5733C15.6266 23.36 15.3244 23.2711 14.7377 23.0222C14.4533 22.9333 14.5066 22.6133 14.9866 22.8267C15.4844 23.0044 15.9644 23.1644 16.4622 23.3244C16.7644 23.0044 16.64 22.2578 16.7644 21.8133C17.2266 21.8133 17.7422 21.8133 18.2044 21.8133C17.92 20.96 17.6177 20.2667 17.3333 19.4133C17.3333 18.6667 17.3155 17.9022 17.3155 17.1555C15.0755 17.3867 12.9422 17.5644 10.7022 17.7955C10.4177 17.7778 10.0977 17.9378 9.95552 18.1511Z" fill="#ED1D24"/>
</g>
<defs>
<clipPath id="clip0_571_8333">
<rect width="150.507" height="56" fill="white"/>
</clipPath>
</defs>
</svg>
